<mxfile host="app.diagrams.net" modified="2023-03-19T16:32:14.117Z" agent="5.0 (Windows NT 10.0; Win64; x64) AppleWebKit/537.36 (KHTML, like Gecko) Chrome/111.0.0.0 Safari/537.36" etag="UtVvlwEK-uCpbIG-VNTL" version="18.0.6" type="github" pages="5">
  <diagram name="HCL Entities" id="b5b7bab2-c9e2-2cf4-8b2a-24fd1a2a6d21">
    <mxGraphModel dx="1038" dy="570" grid="1" gridSize="10" guides="1" tooltips="1" connect="1" arrows="1" fold="1" page="1" pageScale="1" pageWidth="827" pageHeight="1169" background="none" math="0" shadow="0">
      <root>
        <mxCell id="0" />
        <mxCell id="1" parent="0" />
        <mxCell id="6e0c8c40b5770093-72" value="" style="shape=folder;fontStyle=1;spacingTop=10;tabWidth=116;tabHeight=30;tabPosition=left;html=1;rounded=0;shadow=0;comic=0;labelBackgroundColor=#eba50f;strokeWidth=1;fillColor=#dae8fc;fontFamily=Verdana;fontSize=10;align=center;strokeColor=#6c8ebf;" parent="1" vertex="1">
          <mxGeometry x="414" width="716" height="340" as="geometry" />
        </mxCell>
        <mxCell id="6e0c8c40b5770093-73" value="&lt;i&gt;&amp;lt;&amp;lt;Provider&amp;gt;&amp;gt;&lt;/i&gt;&lt;br&gt;&lt;b&gt;AWS&lt;/b&gt;" style="text;html=1;align=center;verticalAlign=top;spacingTop=-4;fontSize=10;fontFamily=Verdana" parent="1" vertex="1">
          <mxGeometry x="420" y="1" width="100" height="20" as="geometry" />
        </mxCell>
        <mxCell id="8DxuIP61aGuZQ9pdNn55-4" value="&lt;p style=&quot;margin:0px;margin-top:4px;text-align:center;&quot;&gt;&lt;i&gt;&amp;lt;&amp;lt;Resource Type&amp;gt;&amp;gt;&lt;/i&gt;&lt;br&gt;&lt;b&gt;aws_instance&lt;/b&gt;&lt;/p&gt;&lt;hr size=&quot;1&quot;&gt;&lt;p style=&quot;margin:0px;margin-left:4px;&quot;&gt;+ name: string&lt;br&gt;+ ami: string&lt;/p&gt;&lt;p style=&quot;margin:0px;margin-left:4px;&quot;&gt;+ instance_type: string&amp;nbsp;&lt;/p&gt;&lt;hr size=&quot;1&quot;&gt;&lt;p style=&quot;margin:0px;margin-left:4px;&quot;&gt;+ arn : string&lt;br&gt;+ public_ip: string&lt;/p&gt;" style="verticalAlign=top;align=left;overflow=fill;fontSize=12;fontFamily=Helvetica;html=1;fillColor=#fff2cc;strokeColor=#d6b656;" parent="1" vertex="1">
          <mxGeometry x="700" y="170" width="190" height="140" as="geometry" />
        </mxCell>
        <mxCell id="8DxuIP61aGuZQ9pdNn55-5" value="&lt;p style=&quot;margin:0px;margin-top:4px;text-align:center;&quot;&gt;&lt;i&gt;&amp;lt;&amp;lt;Resource Type&amp;gt;&amp;gt;&lt;/i&gt;&lt;br&gt;&lt;b&gt;aws_vpc&lt;/b&gt;&lt;/p&gt;&lt;hr size=&quot;1&quot;&gt;&lt;p style=&quot;margin:0px;margin-left:4px;&quot;&gt;+ cidr_block: string&lt;br&gt;&lt;/p&gt;&lt;hr size=&quot;1&quot;&gt;&lt;p style=&quot;margin:0px;margin-left:4px;&quot;&gt;+ id : string&lt;br&gt;&lt;/p&gt;" style="verticalAlign=top;align=left;overflow=fill;fontSize=12;fontFamily=Helvetica;html=1;fillColor=#fff2cc;strokeColor=#d6b656;" parent="1" vertex="1">
          <mxGeometry x="440" y="60" width="190" height="100" as="geometry" />
        </mxCell>
        <mxCell id="8DxuIP61aGuZQ9pdNn55-8" value="«Resource»&lt;br&gt;&lt;b&gt;web_server&lt;/b&gt;" style="html=1;" parent="1" vertex="1">
          <mxGeometry x="740" y="360" width="110" height="50" as="geometry" />
        </mxCell>
        <mxCell id="8DxuIP61aGuZQ9pdNn55-9" value="" style="endArrow=open;endFill=1;endSize=12;html=1;rounded=0;entryX=0.5;entryY=0;entryDx=0;entryDy=0;exitX=0.5;exitY=1;exitDx=0;exitDy=0;" parent="1" source="8DxuIP61aGuZQ9pdNn55-4" target="8DxuIP61aGuZQ9pdNn55-8" edge="1">
          <mxGeometry width="160" relative="1" as="geometry">
            <mxPoint x="540" y="500" as="sourcePoint" />
            <mxPoint x="700" y="500" as="targetPoint" />
          </mxGeometry>
        </mxCell>
        <mxCell id="8DxuIP61aGuZQ9pdNn55-10" value="&lt;p style=&quot;margin:0px;margin-top:4px;text-align:center;&quot;&gt;&lt;i&gt;&amp;lt;&amp;lt;Resource Type&amp;gt;&amp;gt;&lt;/i&gt;&lt;br&gt;&lt;b&gt;aws_subnet&lt;/b&gt;&lt;/p&gt;&lt;hr size=&quot;1&quot;&gt;&lt;p style=&quot;margin:0px;margin-left:4px;&quot;&gt;+ vpc_id: string&lt;br&gt;&lt;/p&gt;&lt;p style=&quot;margin:0px;margin-left:4px;&quot;&gt;+ cidr_block: string&lt;/p&gt;&lt;hr size=&quot;1&quot;&gt;&lt;p style=&quot;margin:0px;margin-left:4px;&quot;&gt;+ id : string&lt;br&gt;&lt;/p&gt;" style="verticalAlign=top;align=left;overflow=fill;fontSize=12;fontFamily=Helvetica;html=1;fillColor=#fff2cc;strokeColor=#d6b656;" parent="1" vertex="1">
          <mxGeometry x="440" y="210" width="190" height="110" as="geometry" />
        </mxCell>
        <mxCell id="8DxuIP61aGuZQ9pdNn55-12" value="«Resource»&lt;br&gt;&lt;b&gt;hub_vpc&lt;/b&gt;" style="html=1;" parent="1" vertex="1">
          <mxGeometry x="490" y="360" width="110" height="50" as="geometry" />
        </mxCell>
        <mxCell id="8DxuIP61aGuZQ9pdNn55-16" value="1" style="endArrow=open;html=1;endSize=12;startArrow=diamondThin;startSize=14;startFill=1;edgeStyle=orthogonalEdgeStyle;align=left;verticalAlign=bottom;rounded=0;" parent="1" source="8DxuIP61aGuZQ9pdNn55-10" target="8DxuIP61aGuZQ9pdNn55-5" edge="1">
          <mxGeometry x="-1" y="15" relative="1" as="geometry">
            <mxPoint x="350" y="200" as="sourcePoint" />
            <mxPoint x="510" y="200" as="targetPoint" />
            <mxPoint as="offset" />
          </mxGeometry>
        </mxCell>
        <mxCell id="8DxuIP61aGuZQ9pdNn55-17" value="«Resource»&lt;br&gt;&lt;b&gt;public_snet&lt;/b&gt;" style="html=1;" parent="1" vertex="1">
          <mxGeometry x="540" y="460" width="110" height="50" as="geometry" />
        </mxCell>
        <mxCell id="8DxuIP61aGuZQ9pdNn55-19" value="Use" style="endArrow=open;endSize=12;dashed=1;html=1;rounded=0;exitX=0.5;exitY=0;exitDx=0;exitDy=0;entryX=0.5;entryY=1;entryDx=0;entryDy=0;" parent="1" source="8DxuIP61aGuZQ9pdNn55-17" target="8DxuIP61aGuZQ9pdNn55-12" edge="1">
          <mxGeometry width="160" relative="1" as="geometry">
            <mxPoint x="540" y="460" as="sourcePoint" />
            <mxPoint x="700" y="460" as="targetPoint" />
          </mxGeometry>
        </mxCell>
        <mxCell id="8DxuIP61aGuZQ9pdNn55-20" value="" style="endArrow=open;endFill=1;endSize=12;html=1;rounded=0;entryX=0;entryY=0.5;entryDx=0;entryDy=0;exitX=0;exitY=0.6;exitDx=0;exitDy=0;exitPerimeter=0;edgeStyle=orthogonalEdgeStyle;" parent="1" source="8DxuIP61aGuZQ9pdNn55-5" target="8DxuIP61aGuZQ9pdNn55-12" edge="1">
          <mxGeometry width="160" relative="1" as="geometry">
            <mxPoint x="350" y="130" as="sourcePoint" />
            <mxPoint x="330" y="385" as="targetPoint" />
            <Array as="points">
              <mxPoint x="400" y="120" />
              <mxPoint x="400" y="385" />
            </Array>
          </mxGeometry>
        </mxCell>
        <mxCell id="8DxuIP61aGuZQ9pdNn55-21" value="" style="endArrow=open;endFill=1;endSize=12;html=1;rounded=0;entryX=0;entryY=0.5;entryDx=0;entryDy=0;exitX=0.005;exitY=0.609;exitDx=0;exitDy=0;exitPerimeter=0;edgeStyle=orthogonalEdgeStyle;" parent="1" source="8DxuIP61aGuZQ9pdNn55-10" target="8DxuIP61aGuZQ9pdNn55-17" edge="1">
          <mxGeometry width="160" relative="1" as="geometry">
            <mxPoint x="430" y="280" as="sourcePoint" />
            <mxPoint x="480" y="545" as="targetPoint" />
            <Array as="points">
              <mxPoint x="430" y="277" />
              <mxPoint x="430" y="485" />
            </Array>
          </mxGeometry>
        </mxCell>
        <mxCell id="8DxuIP61aGuZQ9pdNn55-22" value="Use" style="endArrow=open;endSize=12;dashed=1;html=1;rounded=0;exitX=0;exitY=0.5;exitDx=0;exitDy=0;entryX=1;entryY=0.5;entryDx=0;entryDy=0;" parent="1" source="8DxuIP61aGuZQ9pdNn55-8" target="8DxuIP61aGuZQ9pdNn55-17" edge="1">
          <mxGeometry width="160" relative="1" as="geometry">
            <mxPoint x="555" y="480" as="sourcePoint" />
            <mxPoint x="555" y="420" as="targetPoint" />
          </mxGeometry>
        </mxCell>
        <mxCell id="8DxuIP61aGuZQ9pdNn55-23" value="&lt;p style=&quot;margin:0px;margin-top:4px;text-align:center;&quot;&gt;&lt;i&gt;&amp;lt;&amp;lt;Data Source Type&amp;gt;&amp;gt;&lt;/i&gt;&lt;br&gt;&lt;b&gt;aws_key_pair&lt;/b&gt;&lt;/p&gt;&lt;hr size=&quot;1&quot;&gt;&lt;p style=&quot;margin:0px;margin-left:4px;&quot;&gt;+ name: string&lt;br&gt;+ ami: string&lt;/p&gt;&lt;p style=&quot;margin:0px;margin-left:4px;&quot;&gt;+ instance_type: string&amp;nbsp;&lt;/p&gt;&lt;hr size=&quot;1&quot;&gt;&lt;p style=&quot;margin:0px;margin-left:4px;&quot;&gt;+ arn : string&lt;br&gt;+ public_ip: string&lt;/p&gt;" style="verticalAlign=top;align=left;overflow=fill;fontSize=12;fontFamily=Helvetica;html=1;fillColor=#d5e8d4;strokeColor=#82b366;" parent="1" vertex="1">
          <mxGeometry x="920" y="170" width="190" height="140" as="geometry" />
        </mxCell>
        <mxCell id="8DxuIP61aGuZQ9pdNn55-25" value="«Resource»&lt;br&gt;&lt;b&gt;db_server&lt;/b&gt;" style="html=1;" parent="1" vertex="1">
          <mxGeometry x="740" y="440" width="110" height="50" as="geometry" />
        </mxCell>
        <mxCell id="8DxuIP61aGuZQ9pdNn55-26" value="«Resource»&lt;br&gt;&lt;b&gt;private_snet&lt;/b&gt;" style="html=1;" parent="1" vertex="1">
          <mxGeometry x="490" y="530" width="110" height="50" as="geometry" />
        </mxCell>
        <mxCell id="8DxuIP61aGuZQ9pdNn55-27" value="Use" style="endArrow=open;endSize=12;dashed=1;html=1;rounded=0;exitX=0;exitY=0.5;exitDx=0;exitDy=0;entryX=1;entryY=0.5;entryDx=0;entryDy=0;" parent="1" source="8DxuIP61aGuZQ9pdNn55-25" target="8DxuIP61aGuZQ9pdNn55-26" edge="1">
          <mxGeometry width="160" relative="1" as="geometry">
            <mxPoint x="750" y="395" as="sourcePoint" />
            <mxPoint x="610" y="491" as="targetPoint" />
          </mxGeometry>
        </mxCell>
        <mxCell id="8DxuIP61aGuZQ9pdNn55-28" value="«Data Source»&lt;br&gt;&lt;b&gt;dev_key_pair&lt;/b&gt;" style="html=1;" parent="1" vertex="1">
          <mxGeometry x="960" y="400" width="110" height="50" as="geometry" />
        </mxCell>
        <mxCell id="8DxuIP61aGuZQ9pdNn55-29" value="Use" style="endArrow=open;endSize=12;dashed=1;html=1;rounded=0;exitX=1;exitY=0.5;exitDx=0;exitDy=0;entryX=0;entryY=0.5;entryDx=0;entryDy=0;" parent="1" source="8DxuIP61aGuZQ9pdNn55-8" target="8DxuIP61aGuZQ9pdNn55-28" edge="1">
          <mxGeometry width="160" relative="1" as="geometry">
            <mxPoint x="750" y="395" as="sourcePoint" />
            <mxPoint x="610" y="491" as="targetPoint" />
          </mxGeometry>
        </mxCell>
        <mxCell id="8DxuIP61aGuZQ9pdNn55-30" value="Use" style="endArrow=open;endSize=12;dashed=1;html=1;rounded=0;exitX=1;exitY=0.5;exitDx=0;exitDy=0;entryX=0;entryY=0.75;entryDx=0;entryDy=0;" parent="1" source="8DxuIP61aGuZQ9pdNn55-25" target="8DxuIP61aGuZQ9pdNn55-28" edge="1">
          <mxGeometry width="160" relative="1" as="geometry">
            <mxPoint x="860" y="395" as="sourcePoint" />
            <mxPoint x="920" y="415" as="targetPoint" />
          </mxGeometry>
        </mxCell>
        <mxCell id="8DxuIP61aGuZQ9pdNn55-31" value="" style="endArrow=open;endFill=1;endSize=12;html=1;rounded=0;edgeStyle=orthogonalEdgeStyle;" parent="1" source="8DxuIP61aGuZQ9pdNn55-23" target="8DxuIP61aGuZQ9pdNn55-28" edge="1">
          <mxGeometry width="160" relative="1" as="geometry">
            <mxPoint x="805" y="320" as="sourcePoint" />
            <mxPoint x="805" y="370" as="targetPoint" />
          </mxGeometry>
        </mxCell>
        <mxCell id="z6bpftx_SuWEPvCPnCzu-2" value="Use" style="endArrow=open;endSize=12;dashed=1;html=1;rounded=0;exitX=0.182;exitY=0;exitDx=0;exitDy=0;entryX=0.091;entryY=1;entryDx=0;entryDy=0;exitPerimeter=0;entryPerimeter=0;" parent="1" source="8DxuIP61aGuZQ9pdNn55-26" target="8DxuIP61aGuZQ9pdNn55-12" edge="1">
          <mxGeometry width="160" relative="1" as="geometry">
            <mxPoint x="585" y="470" as="sourcePoint" />
            <mxPoint x="555" y="420" as="targetPoint" />
          </mxGeometry>
        </mxCell>
      </root>
    </mxGraphModel>
  </diagram>
  <diagram name="Modules" id="QUFZin0jfg3p181SHPkT">
    <mxGraphModel dx="794" dy="1103" grid="1" gridSize="10" guides="1" tooltips="1" connect="1" arrows="1" fold="1" page="1" pageScale="1" pageWidth="827" pageHeight="1169" background="none" math="0" shadow="0">
      <root>
        <mxCell id="kpqKArwGpgmmlpV2I83M-0" />
        <mxCell id="kpqKArwGpgmmlpV2I83M-1" parent="kpqKArwGpgmmlpV2I83M-0" />
        <mxCell id="kpqKArwGpgmmlpV2I83M-2" value="" style="shape=folder;fontStyle=1;spacingTop=10;tabWidth=116;tabHeight=30;tabPosition=left;html=1;rounded=0;shadow=0;comic=0;labelBackgroundColor=#eba50f;strokeWidth=1;fillColor=#dae8fc;fontFamily=Verdana;fontSize=10;align=center;strokeColor=#6c8ebf;" vertex="1" parent="kpqKArwGpgmmlpV2I83M-1">
          <mxGeometry x="470" y="311" width="626" height="439" as="geometry" />
        </mxCell>
        <mxCell id="kpqKArwGpgmmlpV2I83M-3" value="&lt;i&gt;&amp;lt;&amp;lt;Project&amp;gt;&amp;gt;&lt;/i&gt;&lt;br&gt;&lt;b&gt;MyWebSite&lt;/b&gt;" style="text;html=1;align=center;verticalAlign=top;spacingTop=-4;fontSize=10;fontFamily=Verdana" vertex="1" parent="kpqKArwGpgmmlpV2I83M-1">
          <mxGeometry x="480" y="311" width="100" height="20" as="geometry" />
        </mxCell>
        <mxCell id="kpqKArwGpgmmlpV2I83M-6" value="«Resource»&lt;br&gt;&lt;b&gt;web_server&lt;/b&gt;" style="html=1;" vertex="1" parent="kpqKArwGpgmmlpV2I83M-1">
          <mxGeometry x="740" y="360" width="110" height="50" as="geometry" />
        </mxCell>
        <mxCell id="kpqKArwGpgmmlpV2I83M-9" value="«Resource»&lt;br&gt;&lt;b&gt;hub_vpc&lt;/b&gt;" style="html=1;" vertex="1" parent="kpqKArwGpgmmlpV2I83M-1">
          <mxGeometry x="490" y="360" width="110" height="50" as="geometry" />
        </mxCell>
        <mxCell id="kpqKArwGpgmmlpV2I83M-11" value="«Resource»&lt;br&gt;&lt;b&gt;public_snet&lt;/b&gt;" style="html=1;" vertex="1" parent="kpqKArwGpgmmlpV2I83M-1">
          <mxGeometry x="550" y="475" width="110" height="50" as="geometry" />
        </mxCell>
        <mxCell id="kpqKArwGpgmmlpV2I83M-12" value="Use" style="endArrow=open;endSize=12;dashed=1;html=1;rounded=0;exitX=0.5;exitY=0;exitDx=0;exitDy=0;entryX=0.5;entryY=1;entryDx=0;entryDy=0;" edge="1" parent="kpqKArwGpgmmlpV2I83M-1" source="kpqKArwGpgmmlpV2I83M-11" target="kpqKArwGpgmmlpV2I83M-9">
          <mxGeometry width="160" relative="1" as="geometry">
            <mxPoint x="540" y="460" as="sourcePoint" />
            <mxPoint x="700" y="460" as="targetPoint" />
          </mxGeometry>
        </mxCell>
        <mxCell id="kpqKArwGpgmmlpV2I83M-15" value="Use" style="endArrow=open;endSize=12;dashed=1;html=1;rounded=0;exitX=0;exitY=0.5;exitDx=0;exitDy=0;entryX=1;entryY=0.5;entryDx=0;entryDy=0;" edge="1" parent="kpqKArwGpgmmlpV2I83M-1" source="kpqKArwGpgmmlpV2I83M-6" target="kpqKArwGpgmmlpV2I83M-11">
          <mxGeometry width="160" relative="1" as="geometry">
            <mxPoint x="555" y="480" as="sourcePoint" />
            <mxPoint x="555" y="420" as="targetPoint" />
          </mxGeometry>
        </mxCell>
        <mxCell id="kpqKArwGpgmmlpV2I83M-18" value="«Resource»&lt;br&gt;&lt;b&gt;private_snet&lt;/b&gt;" style="html=1;" vertex="1" parent="kpqKArwGpgmmlpV2I83M-1">
          <mxGeometry x="490" y="530" width="110" height="50" as="geometry" />
        </mxCell>
        <mxCell id="kpqKArwGpgmmlpV2I83M-20" value="«Data Source»&lt;br&gt;&lt;b&gt;dev_key_pair&lt;/b&gt;" style="html=1;" vertex="1" parent="kpqKArwGpgmmlpV2I83M-1">
          <mxGeometry x="960" y="400" width="110" height="50" as="geometry" />
        </mxCell>
        <mxCell id="kpqKArwGpgmmlpV2I83M-21" value="Use" style="endArrow=open;endSize=12;dashed=1;html=1;rounded=0;exitX=1;exitY=0.5;exitDx=0;exitDy=0;entryX=0;entryY=0.5;entryDx=0;entryDy=0;" edge="1" parent="kpqKArwGpgmmlpV2I83M-1" source="kpqKArwGpgmmlpV2I83M-6" target="kpqKArwGpgmmlpV2I83M-20">
          <mxGeometry width="160" relative="1" as="geometry">
            <mxPoint x="750" y="395" as="sourcePoint" />
            <mxPoint x="610" y="491" as="targetPoint" />
          </mxGeometry>
        </mxCell>
        <mxCell id="G2jCpDMWolXSEanHZluc-3" value="" style="group" vertex="1" connectable="0" parent="kpqKArwGpgmmlpV2I83M-1">
          <mxGeometry x="700" y="475" width="360" height="255" as="geometry" />
        </mxCell>
        <mxCell id="G2jCpDMWolXSEanHZluc-1" value="" style="shape=folder;fontStyle=1;spacingTop=10;tabWidth=116;tabHeight=30;tabPosition=left;html=1;rounded=0;shadow=0;comic=0;labelBackgroundColor=#eba50f;strokeWidth=1;fillColor=#b0e3e6;fontFamily=Verdana;fontSize=10;align=center;strokeColor=#0e8088;" vertex="1" parent="G2jCpDMWolXSEanHZluc-3">
          <mxGeometry width="360" height="255.00000000000003" as="geometry" />
        </mxCell>
        <mxCell id="G2jCpDMWolXSEanHZluc-2" value="&lt;i&gt;&amp;lt;&amp;lt;Module&amp;gt;&amp;gt;&lt;/i&gt;&lt;br&gt;&lt;b&gt;terraform-aws-rds&lt;/b&gt;" style="text;html=1;align=center;verticalAlign=top;spacingTop=-4;fontSize=10;fontFamily=Verdana" vertex="1" parent="G2jCpDMWolXSEanHZluc-3">
          <mxGeometry x="7.411764705882353" y="1.1590909090909092" width="105.88235294117648" height="23.181818181818183" as="geometry" />
        </mxCell>
        <mxCell id="G2jCpDMWolXSEanHZluc-4" value="«Resource»&lt;br&gt;&lt;b&gt;random_password&lt;/b&gt;" style="html=1;" vertex="1" parent="G2jCpDMWolXSEanHZluc-3">
          <mxGeometry x="20" y="45" width="130" height="50" as="geometry" />
        </mxCell>
        <mxCell id="G2jCpDMWolXSEanHZluc-5" value="«Resource»&lt;br&gt;&lt;b&gt;aws_db_instance_automated_backups_replication&lt;/b&gt;" style="html=1;" vertex="1" parent="G2jCpDMWolXSEanHZluc-3">
          <mxGeometry x="20" y="185" width="320" height="50" as="geometry" />
        </mxCell>
        <mxCell id="G2jCpDMWolXSEanHZluc-6" value="«Resource»&lt;br&gt;&lt;b&gt;aws_db_instance&lt;/b&gt;" style="html=1;" vertex="1" parent="G2jCpDMWolXSEanHZluc-3">
          <mxGeometry x="195" y="45" width="130" height="50" as="geometry" />
        </mxCell>
        <mxCell id="G2jCpDMWolXSEanHZluc-7" value="«Resource»&lt;br&gt;&lt;b&gt;aws_db_instance&lt;/b&gt;" style="html=1;" vertex="1" parent="G2jCpDMWolXSEanHZluc-3">
          <mxGeometry x="20" y="115" width="130" height="50" as="geometry" />
        </mxCell>
        <mxCell id="G2jCpDMWolXSEanHZluc-8" value="«Resource»&lt;br&gt;&lt;b&gt;aws_cloudwatch_log_group&lt;/b&gt;" style="html=1;" vertex="1" parent="G2jCpDMWolXSEanHZluc-3">
          <mxGeometry x="160" y="115" width="180" height="50" as="geometry" />
        </mxCell>
        <mxCell id="OmeGJDxW2ZTBOuYBBtr7-0" value="Use" style="endArrow=open;endSize=12;dashed=1;html=1;rounded=0;exitX=0.418;exitY=-0.02;exitDx=0;exitDy=0;entryX=0.25;entryY=1;entryDx=0;entryDy=0;exitPerimeter=0;" edge="1" parent="kpqKArwGpgmmlpV2I83M-1" source="kpqKArwGpgmmlpV2I83M-18" target="kpqKArwGpgmmlpV2I83M-9">
          <mxGeometry width="160" relative="1" as="geometry">
            <mxPoint x="615" y="470" as="sourcePoint" />
            <mxPoint x="555" y="420" as="targetPoint" />
          </mxGeometry>
        </mxCell>
        <mxCell id="OmeGJDxW2ZTBOuYBBtr7-1" value="Use" style="endArrow=open;endSize=12;dashed=1;html=1;rounded=0;exitX=0;exitY=0;exitDx=0;exitDy=86.25;entryX=1;entryY=0.5;entryDx=0;entryDy=0;exitPerimeter=0;" edge="1" parent="kpqKArwGpgmmlpV2I83M-1" source="G2jCpDMWolXSEanHZluc-1" target="kpqKArwGpgmmlpV2I83M-18">
          <mxGeometry width="160" relative="1" as="geometry">
            <mxPoint x="545.98" y="539" as="sourcePoint" />
            <mxPoint x="527.5" y="420" as="targetPoint" />
          </mxGeometry>
        </mxCell>
      </root>
    </mxGraphModel>
  </diagram>
  <diagram name="Variables" id="PYUVn-7r_9LVy71nzg65">
    <mxGraphModel dx="794" dy="1103" grid="1" gridSize="10" guides="1" tooltips="1" connect="1" arrows="1" fold="1" page="1" pageScale="1" pageWidth="827" pageHeight="1169" background="none" math="0" shadow="0">
      <root>
        <mxCell id="xrWXNSWufijS8HOdYX6p-0" />
        <mxCell id="xrWXNSWufijS8HOdYX6p-1" parent="xrWXNSWufijS8HOdYX6p-0" />
        <mxCell id="xrWXNSWufijS8HOdYX6p-2" value="" style="shape=folder;fontStyle=1;spacingTop=10;tabWidth=116;tabHeight=30;tabPosition=left;html=1;rounded=0;shadow=0;comic=0;labelBackgroundColor=#eba50f;strokeWidth=1;fillColor=#dae8fc;fontFamily=Verdana;fontSize=10;align=center;strokeColor=#6c8ebf;" vertex="1" parent="xrWXNSWufijS8HOdYX6p-1">
          <mxGeometry x="470" y="311" width="626" height="439" as="geometry" />
        </mxCell>
        <mxCell id="xrWXNSWufijS8HOdYX6p-3" value="&lt;i&gt;&amp;lt;&amp;lt;Project&amp;gt;&amp;gt;&lt;/i&gt;&lt;br&gt;&lt;b&gt;MyWebSite&lt;/b&gt;" style="text;html=1;align=center;verticalAlign=top;spacingTop=-4;fontSize=10;fontFamily=Verdana" vertex="1" parent="xrWXNSWufijS8HOdYX6p-1">
          <mxGeometry x="480" y="311" width="100" height="20" as="geometry" />
        </mxCell>
        <mxCell id="xrWXNSWufijS8HOdYX6p-5" value="«Variable»&lt;br&gt;&lt;b&gt;vpc_cidr&lt;/b&gt;" style="html=1;" vertex="1" parent="xrWXNSWufijS8HOdYX6p-1">
          <mxGeometry x="493" y="360" width="110" height="50" as="geometry" />
        </mxCell>
        <mxCell id="xrWXNSWufijS8HOdYX6p-12" value="" style="group" vertex="1" connectable="0" parent="xrWXNSWufijS8HOdYX6p-1">
          <mxGeometry x="630" y="530" width="430" height="200" as="geometry" />
        </mxCell>
        <mxCell id="xrWXNSWufijS8HOdYX6p-13" value="" style="shape=folder;fontStyle=1;spacingTop=10;tabWidth=116;tabHeight=30;tabPosition=left;html=1;rounded=0;shadow=0;comic=0;labelBackgroundColor=#eba50f;strokeWidth=1;fillColor=#b0e3e6;fontFamily=Verdana;fontSize=10;align=center;strokeColor=#0e8088;" vertex="1" parent="xrWXNSWufijS8HOdYX6p-12">
          <mxGeometry width="430.00000000000006" height="200.00000000000003" as="geometry" />
        </mxCell>
        <mxCell id="xrWXNSWufijS8HOdYX6p-14" value="&lt;i&gt;&amp;lt;&amp;lt;Module&amp;gt;&amp;gt;&lt;/i&gt;&lt;br&gt;&lt;b&gt;rds&lt;/b&gt;" style="text;html=1;align=center;verticalAlign=top;spacingTop=-4;fontSize=10;fontFamily=Verdana" vertex="1" parent="xrWXNSWufijS8HOdYX6p-12">
          <mxGeometry x="8.852941176470589" y="0.9090909090909092" width="126.47058823529412" height="18.181818181818183" as="geometry" />
        </mxCell>
        <mxCell id="y1Tc1fugKUGstQnqkb0p-3" value="«Variable»&lt;br&gt;&lt;b&gt;db_name&lt;/b&gt;" style="html=1;" vertex="1" parent="xrWXNSWufijS8HOdYX6p-12">
          <mxGeometry x="71.36" y="55" width="86.13" height="50" as="geometry" />
        </mxCell>
        <mxCell id="y1Tc1fugKUGstQnqkb0p-4" value="«Variable»&lt;br&gt;&lt;b&gt;cloudwatch_log_group_retention&lt;/b&gt;" style="html=1;" vertex="1" parent="xrWXNSWufijS8HOdYX6p-12">
          <mxGeometry x="8.85" y="115" width="211.15" height="50" as="geometry" />
        </mxCell>
        <mxCell id="y1Tc1fugKUGstQnqkb0p-5" value="«Output»&lt;br&gt;&lt;b&gt;db_instance_address&lt;/b&gt;" style="html=1;" vertex="1" parent="xrWXNSWufijS8HOdYX6p-12">
          <mxGeometry x="270" y="140" width="132.9" height="50" as="geometry" />
        </mxCell>
        <mxCell id="y1Tc1fugKUGstQnqkb0p-7" value="«Output»&lt;br&gt;&lt;b&gt;db_instance_password&lt;/b&gt;" style="html=1;" vertex="1" parent="xrWXNSWufijS8HOdYX6p-12">
          <mxGeometry x="260" y="75" width="152.9" height="50" as="geometry" />
        </mxCell>
        <mxCell id="9sfp2dPeC_DNYbzhoHgx-0" value="«Variable»&lt;br&gt;&lt;b&gt;public_hostname&lt;/b&gt;" style="html=1;" vertex="1" parent="xrWXNSWufijS8HOdYX6p-1">
          <mxGeometry x="493" y="420" width="110" height="50" as="geometry" />
        </mxCell>
        <mxCell id="9sfp2dPeC_DNYbzhoHgx-1" value="«Variable»&lt;br&gt;&lt;b&gt;web_instance_type&lt;/b&gt;" style="html=1;" vertex="1" parent="xrWXNSWufijS8HOdYX6p-1">
          <mxGeometry x="490" y="480" width="120" height="50" as="geometry" />
        </mxCell>
        <mxCell id="y1Tc1fugKUGstQnqkb0p-0" value="«Local»&lt;br&gt;&lt;b&gt;public_subnet_cidr&lt;/b&gt;" style="html=1;" vertex="1" parent="xrWXNSWufijS8HOdYX6p-1">
          <mxGeometry x="720" y="360" width="140" height="50" as="geometry" />
        </mxCell>
        <mxCell id="y1Tc1fugKUGstQnqkb0p-1" value="«Local»&lt;br&gt;&lt;b&gt;private_subnet_cidr&lt;/b&gt;" style="html=1;" vertex="1" parent="xrWXNSWufijS8HOdYX6p-1">
          <mxGeometry x="720" y="420" width="140" height="50" as="geometry" />
        </mxCell>
        <mxCell id="y1Tc1fugKUGstQnqkb0p-2" value="«Output»&lt;br&gt;&lt;b&gt;public_ip&lt;/b&gt;" style="html=1;" vertex="1" parent="xrWXNSWufijS8HOdYX6p-1">
          <mxGeometry x="940" y="360" width="140" height="50" as="geometry" />
        </mxCell>
      </root>
    </mxGraphModel>
  </diagram>
  <diagram id="ipPcP35AByx7vGIGvUXA" name="AWS IaaS">
    <mxGraphModel dx="1038" dy="570" grid="1" gridSize="10" guides="1" tooltips="1" connect="1" arrows="1" fold="1" page="1" pageScale="1" pageWidth="850" pageHeight="1100" math="0" shadow="0">
      <root>
        <mxCell id="0" />
        <mxCell id="1" parent="0" />
        <mxCell id="-Emf8tSWSK7opu32MAOs-7" value="Region us-west-1" style="points=[[0,0],[0.25,0],[0.5,0],[0.75,0],[1,0],[1,0.25],[1,0.5],[1,0.75],[1,1],[0.75,1],[0.5,1],[0.25,1],[0,1],[0,0.75],[0,0.5],[0,0.25]];outlineConnect=0;gradientColor=none;html=1;whiteSpace=wrap;fontSize=12;fontStyle=0;container=1;pointerEvents=0;collapsible=0;recursiveResize=0;shape=mxgraph.aws4.group;grIcon=mxgraph.aws4.group_region;strokeColor=#147EBA;fillColor=none;verticalAlign=top;align=left;spacingLeft=30;fontColor=#147EBA;dashed=1;" parent="1" vertex="1">
          <mxGeometry x="70" y="190" width="570" height="680" as="geometry" />
        </mxCell>
        <mxCell id="-Emf8tSWSK7opu32MAOs-9" value="VPC" style="points=[[0,0],[0.25,0],[0.5,0],[0.75,0],[1,0],[1,0.25],[1,0.5],[1,0.75],[1,1],[0.75,1],[0.5,1],[0.25,1],[0,1],[0,0.75],[0,0.5],[0,0.25]];outlineConnect=0;gradientColor=none;html=1;whiteSpace=wrap;fontSize=12;fontStyle=0;container=1;pointerEvents=0;collapsible=0;recursiveResize=0;shape=mxgraph.aws4.group;grIcon=mxgraph.aws4.group_vpc;strokeColor=#248814;fillColor=none;verticalAlign=top;align=left;spacingLeft=30;fontColor=#AAB7B8;dashed=0;" parent="1" vertex="1">
          <mxGeometry x="120" y="230" width="490" height="600" as="geometry" />
        </mxCell>
        <mxCell id="-Emf8tSWSK7opu32MAOs-10" value="Availability Zone&#xa;us-west-3a" style="fillColor=none;strokeColor=#147EBA;dashed=1;verticalAlign=top;fontStyle=0;fontColor=#147EBA;" parent="-Emf8tSWSK7opu32MAOs-9" vertex="1">
          <mxGeometry x="267" y="180" width="190" height="300" as="geometry" />
        </mxCell>
        <mxCell id="-Emf8tSWSK7opu32MAOs-11" value="Public subnet" style="points=[[0,0],[0.25,0],[0.5,0],[0.75,0],[1,0],[1,0.25],[1,0.5],[1,0.75],[1,1],[0.75,1],[0.5,1],[0.25,1],[0,1],[0,0.75],[0,0.5],[0,0.25]];outlineConnect=0;gradientColor=none;html=1;whiteSpace=wrap;fontSize=12;fontStyle=0;container=1;pointerEvents=0;collapsible=0;recursiveResize=0;shape=mxgraph.aws4.group;grIcon=mxgraph.aws4.group_security_group;grStroke=0;strokeColor=#248814;fillColor=#E9F3E6;verticalAlign=top;align=left;spacingLeft=30;fontColor=#248814;dashed=0;" parent="-Emf8tSWSK7opu32MAOs-9" vertex="1">
          <mxGeometry x="303" y="250" width="130" height="200" as="geometry" />
        </mxCell>
        <mxCell id="-Emf8tSWSK7opu32MAOs-3" value="internet gateway" style="sketch=0;outlineConnect=0;fontColor=#232F3E;gradientColor=none;fillColor=#4D27AA;strokeColor=none;dashed=0;verticalLabelPosition=bottom;verticalAlign=top;align=center;html=1;fontSize=12;fontStyle=0;aspect=fixed;pointerEvents=1;shape=mxgraph.aws4.internet_gateway;" parent="-Emf8tSWSK7opu32MAOs-9" vertex="1">
          <mxGeometry x="216" y="-20" width="78" height="78" as="geometry" />
        </mxCell>
        <mxCell id="-Emf8tSWSK7opu32MAOs-8" value="Availability Zone&#xa;us-west-1a" style="fillColor=none;strokeColor=#147EBA;dashed=1;verticalAlign=top;fontStyle=0;fontColor=#147EBA;" parent="-Emf8tSWSK7opu32MAOs-9" vertex="1">
          <mxGeometry x="53" y="180" width="190" height="300" as="geometry" />
        </mxCell>
        <mxCell id="-Emf8tSWSK7opu32MAOs-6" value="Public subnet" style="points=[[0,0],[0.25,0],[0.5,0],[0.75,0],[1,0],[1,0.25],[1,0.5],[1,0.75],[1,1],[0.75,1],[0.5,1],[0.25,1],[0,1],[0,0.75],[0,0.5],[0,0.25]];outlineConnect=0;gradientColor=none;html=1;whiteSpace=wrap;fontSize=12;fontStyle=0;container=1;pointerEvents=0;collapsible=0;recursiveResize=0;shape=mxgraph.aws4.group;grIcon=mxgraph.aws4.group_security_group;grStroke=0;strokeColor=#248814;fillColor=#E9F3E6;verticalAlign=top;align=left;spacingLeft=30;fontColor=#248814;dashed=0;" parent="-Emf8tSWSK7opu32MAOs-9" vertex="1">
          <mxGeometry x="83" y="250" width="127" height="200" as="geometry" />
        </mxCell>
        <mxCell id="-Emf8tSWSK7opu32MAOs-1" value="server1" style="sketch=0;points=[[0,0,0],[0.25,0,0],[0.5,0,0],[0.75,0,0],[1,0,0],[0,1,0],[0.25,1,0],[0.5,1,0],[0.75,1,0],[1,1,0],[0,0.25,0],[0,0.5,0],[0,0.75,0],[1,0.25,0],[1,0.5,0],[1,0.75,0]];outlineConnect=0;fontColor=#232F3E;gradientColor=#F78E04;gradientDirection=north;fillColor=#D05C17;strokeColor=#ffffff;dashed=0;verticalLabelPosition=bottom;verticalAlign=top;align=center;html=1;fontSize=12;fontStyle=0;aspect=fixed;shape=mxgraph.aws4.resourceIcon;resIcon=mxgraph.aws4.ec2;" parent="-Emf8tSWSK7opu32MAOs-6" vertex="1">
          <mxGeometry x="24" y="50" width="78" height="78" as="geometry" />
        </mxCell>
        <mxCell id="-Emf8tSWSK7opu32MAOs-12" value="server2" style="sketch=0;points=[[0,0,0],[0.25,0,0],[0.5,0,0],[0.75,0,0],[1,0,0],[0,1,0],[0.25,1,0],[0.5,1,0],[0.75,1,0],[1,1,0],[0,0.25,0],[0,0.5,0],[0,0.75,0],[1,0.25,0],[1,0.5,0],[1,0.75,0]];outlineConnect=0;fontColor=#232F3E;gradientColor=#F78E04;gradientDirection=north;fillColor=#D05C17;strokeColor=#ffffff;dashed=0;verticalLabelPosition=bottom;verticalAlign=top;align=center;html=1;fontSize=12;fontStyle=0;aspect=fixed;shape=mxgraph.aws4.resourceIcon;resIcon=mxgraph.aws4.ec2;" parent="-Emf8tSWSK7opu32MAOs-9" vertex="1">
          <mxGeometry x="329" y="300" width="78" height="78" as="geometry" />
        </mxCell>
        <mxCell id="-Emf8tSWSK7opu32MAOs-15" style="rounded=0;orthogonalLoop=1;jettySize=auto;html=1;endArrow=none;endFill=0;dashed=1;" parent="-Emf8tSWSK7opu32MAOs-9" source="-Emf8tSWSK7opu32MAOs-14" target="-Emf8tSWSK7opu32MAOs-11" edge="1">
          <mxGeometry relative="1" as="geometry" />
        </mxCell>
        <mxCell id="-Emf8tSWSK7opu32MAOs-16" style="edgeStyle=none;rounded=0;orthogonalLoop=1;jettySize=auto;html=1;dashed=1;endArrow=none;endFill=0;" parent="-Emf8tSWSK7opu32MAOs-9" source="-Emf8tSWSK7opu32MAOs-14" target="-Emf8tSWSK7opu32MAOs-6" edge="1">
          <mxGeometry relative="1" as="geometry" />
        </mxCell>
        <mxCell id="-Emf8tSWSK7opu32MAOs-14" value="route table" style="sketch=0;outlineConnect=0;fontColor=#232F3E;gradientColor=none;fillColor=#4D27AA;strokeColor=none;dashed=0;verticalLabelPosition=bottom;verticalAlign=top;align=center;html=1;fontSize=12;fontStyle=0;aspect=fixed;pointerEvents=1;shape=mxgraph.aws4.route_table;" parent="-Emf8tSWSK7opu32MAOs-9" vertex="1">
          <mxGeometry x="216" y="490" width="78" height="76" as="geometry" />
        </mxCell>
        <mxCell id="-Emf8tSWSK7opu32MAOs-19" style="edgeStyle=none;rounded=0;orthogonalLoop=1;jettySize=auto;html=1;dashed=1;endArrow=none;endFill=0;" parent="-Emf8tSWSK7opu32MAOs-9" source="-Emf8tSWSK7opu32MAOs-5" target="-Emf8tSWSK7opu32MAOs-1" edge="1">
          <mxGeometry relative="1" as="geometry" />
        </mxCell>
        <mxCell id="-Emf8tSWSK7opu32MAOs-20" style="edgeStyle=none;rounded=0;orthogonalLoop=1;jettySize=auto;html=1;dashed=1;endArrow=none;endFill=0;" parent="-Emf8tSWSK7opu32MAOs-9" source="-Emf8tSWSK7opu32MAOs-5" target="-Emf8tSWSK7opu32MAOs-12" edge="1">
          <mxGeometry relative="1" as="geometry" />
        </mxCell>
        <mxCell id="-Emf8tSWSK7opu32MAOs-5" value="" style="sketch=0;outlineConnect=0;fontColor=#232F3E;gradientColor=none;fillColor=#4D27AA;strokeColor=none;dashed=0;verticalLabelPosition=bottom;verticalAlign=top;align=center;html=1;fontSize=12;fontStyle=0;aspect=fixed;pointerEvents=1;shape=mxgraph.aws4.application_load_balancer;" parent="-Emf8tSWSK7opu32MAOs-9" vertex="1">
          <mxGeometry x="216" y="102" width="78" height="78" as="geometry" />
        </mxCell>
      </root>
    </mxGraphModel>
  </diagram>
  <diagram name="Jenkins" id="-UIZ7lPI3t7j3H5aX6VV">
    <mxGraphModel dx="1038" dy="570" grid="1" gridSize="10" guides="1" tooltips="1" connect="1" arrows="1" fold="1" page="1" pageScale="1" pageWidth="850" pageHeight="1100" math="0" shadow="0">
      <root>
        <mxCell id="zeCfwcNcxwWv2EAUOY0I-0" />
        <mxCell id="zeCfwcNcxwWv2EAUOY0I-1" parent="zeCfwcNcxwWv2EAUOY0I-0" />
        <mxCell id="hxAKSug00ec5mAVM0QNB-0" value="Jenkins&lt;br&gt;Master" style="aspect=fixed;perimeter=ellipsePerimeter;html=1;align=center;shadow=0;dashed=0;spacingTop=3;image;image=img/lib/active_directory/web_server.svg;" vertex="1" parent="zeCfwcNcxwWv2EAUOY0I-1">
          <mxGeometry x="270" y="410" width="40" height="50" as="geometry" />
        </mxCell>
        <mxCell id="hxAKSug00ec5mAVM0QNB-6" style="edgeStyle=orthogonalEdgeStyle;rounded=0;orthogonalLoop=1;jettySize=auto;html=1;" edge="1" parent="zeCfwcNcxwWv2EAUOY0I-1" source="hxAKSug00ec5mAVM0QNB-2" target="hxAKSug00ec5mAVM0QNB-3">
          <mxGeometry relative="1" as="geometry" />
        </mxCell>
        <mxCell id="hxAKSug00ec5mAVM0QNB-7" style="edgeStyle=orthogonalEdgeStyle;rounded=0;orthogonalLoop=1;jettySize=auto;html=1;entryX=0;entryY=0.5;entryDx=0;entryDy=0;" edge="1" parent="zeCfwcNcxwWv2EAUOY0I-1" source="hxAKSug00ec5mAVM0QNB-2" target="hxAKSug00ec5mAVM0QNB-4">
          <mxGeometry relative="1" as="geometry" />
        </mxCell>
        <mxCell id="hxAKSug00ec5mAVM0QNB-2" value="Jenkins&lt;br&gt;Master" style="aspect=fixed;perimeter=ellipsePerimeter;html=1;align=center;shadow=0;dashed=0;spacingTop=3;image;image=img/lib/active_directory/web_server.svg;" vertex="1" parent="zeCfwcNcxwWv2EAUOY0I-1">
          <mxGeometry x="270" y="550" width="40" height="50" as="geometry" />
        </mxCell>
        <mxCell id="hxAKSug00ec5mAVM0QNB-3" value="Worker" style="aspect=fixed;perimeter=ellipsePerimeter;html=1;align=center;shadow=0;dashed=0;spacingTop=3;image;image=img/lib/active_directory/generic_server.svg;" vertex="1" parent="zeCfwcNcxwWv2EAUOY0I-1">
          <mxGeometry x="380" y="520" width="28.000000000000004" height="50" as="geometry" />
        </mxCell>
        <mxCell id="hxAKSug00ec5mAVM0QNB-4" value="Worker" style="aspect=fixed;perimeter=ellipsePerimeter;html=1;align=center;shadow=0;dashed=0;spacingTop=3;image;image=img/lib/active_directory/generic_server.svg;" vertex="1" parent="zeCfwcNcxwWv2EAUOY0I-1">
          <mxGeometry x="380" y="600" width="28.000000000000004" height="50" as="geometry" />
        </mxCell>
        <mxCell id="hxAKSug00ec5mAVM0QNB-10" style="edgeStyle=orthogonalEdgeStyle;rounded=0;orthogonalLoop=1;jettySize=auto;html=1;" edge="1" parent="zeCfwcNcxwWv2EAUOY0I-1" source="hxAKSug00ec5mAVM0QNB-8" target="hxAKSug00ec5mAVM0QNB-9">
          <mxGeometry relative="1" as="geometry" />
        </mxCell>
        <mxCell id="hxAKSug00ec5mAVM0QNB-8" value="Jenkins&lt;br&gt;Master" style="aspect=fixed;perimeter=ellipsePerimeter;html=1;align=center;shadow=0;dashed=0;spacingTop=3;image;image=img/lib/active_directory/web_server.svg;" vertex="1" parent="zeCfwcNcxwWv2EAUOY0I-1">
          <mxGeometry x="280" y="690" width="40" height="50" as="geometry" />
        </mxCell>
        <mxCell id="hxAKSug00ec5mAVM0QNB-9" value="Pool" style="aspect=fixed;perimeter=ellipsePerimeter;html=1;align=center;shadow=0;dashed=0;spacingTop=3;image;image=img/lib/active_directory/server_farm.svg;" vertex="1" parent="zeCfwcNcxwWv2EAUOY0I-1">
          <mxGeometry x="369" y="690" width="50" height="50" as="geometry" />
        </mxCell>
      </root>
    </mxGraphModel>
  </diagram>
</mxfile>
